<?xml version="1.0" encoding="UTF-8" standalone="no"?>
<svg
   width="480"
   height="480"
   viewBox="0 0 1500.0014 1500.0014"
   version="1.1"
   xmlns="http://www.w3.org/2000/svg"
   xmlns:svg="http://www.w3.org/2000/svg">
  <defs>
    <linearGradient x1="268.69525"
       y1="906.13007"
       x2="729.10559"
       y2="216.50153"
       gradientUnits="userSpaceOnUse"
       gradientTransform="matrix(1.7646723,0,0,1.7646723,-120.83675,-234.63673)"
       id="gradient">
      <stop
         style="stop-color:#ffdd33;stop-opacity:1;"
         offset="0" />
      <stop
         style="stop-color:#ffb219;stop-opacity:1;"
         offset="0.5" />
      <stop
         style="stop-color:#ff8000;stop-opacity:1;"
         offset="0.55000001" />
      <stop
         style="stop-color:#ff6a00;stop-opacity:1;"
         offset="0.60000002" />
      <stop
         style="stop-color:#e53900;stop-opacity:1;"
         offset="0.69510615" />
      <stop
         style="stop-color:#cc2200;stop-opacity:1;"
         offset="1" />
    </linearGradient>
  </defs>
  <circle
     style="opacity:1;fill:#110b09;fill-opacity:1;stroke:none;stroke-width:0.874476;stroke-linecap:round;stroke-linejoin:round;stroke-dasharray:none;stroke-opacity:1"
     cx="750.02893"
     cy="750.11127"
     r="749.80066" />
  <path
     style="opacity:1;mix-blend-mode:normal;fill:url(#gradient);fill-opacity:1;fill-rule:nonzero;stroke:none;stroke-width:1.65439;stroke-linecap:round;stroke-linejoin:round;stroke-dasharray:none"
     d="m 680.32143,73.5781 c -13.90561,5.964606 -12.33635,17.417488 -12.35403,30.59958 -3.4177,52.45224 -23.41077,63.07823 -61.7593,93.83449 -37.87221,36.7061 -75.93462,73.21334 -112.86632,110.87376 -29.62571,30.97744 -59.3782,61.81622 -90.07549,91.74496 -9.59984,9.37041 -20.5846,15.05184 -25.47274,28.2516 -5.77047,15.54677 -0.0969,26.13137 5.32073,40.58402 10.42106,29.93287 17.17972,64.30465 36.35116,89.67702 15.12325,15.12323 35.5267,16.05547 56.8263,15.8437 38.0486,-1.64614 44.54958,-19.78086 52.09797,-50.81623 15.92817,-35.075 79.43786,-51.37361 86.63962,-50.33157 31.07303,15.63539 60.79848,32.53984 97.05492,29.15637 87.05341,-1.09318 145.96148,-110.76935 97.76582,-224.11709 -8.86512,-39.89296 70.59992,22.72873 71.6468,112.94174 -14.48638,236.50978 -400.2516,234.64982 -457.40001,525.86948 -3.82936,19.53495 -10.99916,47.35291 14.46506,55.32912 4.25286,1.3413 9.65577,1.1417 14.1204,1.1417 h 82.93453 c 47.17652,-3.5878 73.6062,-166.30822 255.8799,-246.87557 6.63518,-2.947 18.12173,-7.96088 24.05103,-1.37867 5.69987,6.33519 -1.84496,12.34026 -6.3978,16.3284 -55.5184,48.83098 -113.46062,98.01796 -147.79578,164.86738 -8.43515,16.74674 -32.50913,54.72604 -3.97439,65.75536 5.11755,1.9763 25.18062,1.3738 31.76283,1.3031 35.22287,-0.4236 35.61482,-27.70324 47.45578,-52.93812 C 773.69961,851.89429 829.46965,797.6124 886.6345,744.7553 1033.5173,561.11376 1046.4937,370.10517 869.14285,207.05957 839.51527,182.74564 803.30651,168.93347 770.32152,149.88862 760.40407,143.28875 726.70483,111.94053 717.40499,102.4113 707.18752,91.929148 696.76817,71.08992 680.32143,73.5781 Z m 160.78524,36.09266 c -12.05274,0.4588 -7.57752,17.41633 3.32816,23.66326 133.86963,74.77299 148.03655,144.02455 169.41267,143.49824 18.9701,-0.47647 14.138,-30.87335 14.1203,-43.82606 -0.099,-66.97891 -172.25293,-126.54831 -186.86113,-123.33544 z M 636.41998,251.56418 a 45.175613,45.175613 0 0 1 45.17239,45.17237 45.175613,45.175613 0 0 1 -45.17239,45.18316 45.175613,45.175613 0 0 1 -45.17239,-45.18316 45.175613,45.175613 0 0 1 45.17239,-45.17237 z m 460.55592,84.28085 c -2.9676,0.36507 -6.102,1.95837 -9.2952,5.20227 l -17.8579,43.71832 c -19.9719,47.68013 13.4275,72.40454 -12.4724,185.28863 -21.882,95.30194 30.919,25.69623 46.0341,-3.53279 16.9054,-32.66409 30.5446,-68.72979 32.1505,-105.87615 0,-0.0597 1.6157,-42.63068 -18.8811,-105.87615 -3.3373,-10.0059 -10.7753,-20.01931 -19.678,-18.92413 z m 22.9092,329.04539 c -28.5464,11.1438 -47.3704,51.91018 -77.8075,69.21263 -60.08723,42.68742 -139.26647,85.43789 -190.51256,137.72518 -17.39968,17.75259 -39.55615,47.4348 -48.85596,70.56967 -4.85284,12.05282 -1.27634,25.46564 11.72928,30.45975 4.00582,1.5352 9.81463,1.3031 14.12046,1.3031 h 132.35049 c 35.92878,-0.052 51.06299,-21.29233 71.60379,-47.63884 35.5758,-45.63447 71.1003,-118.98344 87.7059,-174.7118 4.5053,-18.17369 36.3724,-88.7724 -0.3339,-86.91969 z M 472.09116,1046.7124 c -29.99942,6.194 -57.0019,23.1313 -70.92516,50.9778 -6.25646,12.5258 -24.57788,56.3249 25.0419,56.4709 h 649.3987 c 48.4736,0 31.1697,-46.5432 22.1555,-61.7593 -17.682,-29.7877 -51.6935,-45.8306 -85.681,-45.6894 z m -35.29563,178.04 c -21.84664,0.035 -59.53881,7.1792 -68.80334,29.9965 -2.61464,6.4084 -3.15554,42.258 0.28003,46.6371 3.5117,4.4471 28.55302,2.7681 34.99407,2.7681 h 728.81131 c 0,-19.2703 2.1183,-41.7337 -9.952,-58.2156 -12.5293,-17.1175 -37.2363,-21.1509 -57.1065,-21.1861 z" />
</svg>
